# xmcd
#
# Track frame offsets:
#	150
#	14678
#	26075
#	42217
#	56573
#	65891
#	78227
#	94421
#	108226
#	122935
#	134339
#	153453
#	168029
#	183282
#	203461
#	217243
#	228266
#	241910
#	255542
#	271369
#	280240
#	292556
#	305961
#	321739
#	334707
#
# Disc length: 4608 seconds
#
# Revision: 1
# Processed by: cddbd v1.5.2PL0 Copyright (c) Steve Scherf et al.
# Submitted via: audiograbber 1.83.01
#
DISCID=7311fe19
DTITLE=div - To Hits Of The ´40s Cd2
DYEAR=2018
DGENRE=Chansons
TTITLE0=Peggy Lee and Benny Goodman - On The Sunny Side Of The Street
TTITLE1=Bing Crosby - Swinging On A Star
TTITLE2=Artie Shaw - Stardust
TTITLE3=Ella Fitzgerald and The Ink Spots - Into Each Life Some Rain Must Fall
TTITLE4=Dinah Shore - Buttons And Bows
TTITLE5=Louis Jordan and His Tympany Five - Is You Is Or Is You Ain´t My Baby
TTITLE6=Glenn Miller - American Patrol
TTITLE7=Doris Day and Les Brown - Come To Baby Do!
TTITLE8=Ella Fitzgerald - How High The Moon
TTITLE9=Gene Autry - Tweedle-0-Twill
TTITLE10=Frank Sinatra - Stormy Weather
TTITLE11=Billie Holiday and Louis Armstrong - You Can´t Lose A Broken Heart
TTITLE12=The Ills Brothers - You Always Hurt The One You Love
TTITLE13=Fats Waller - Moppin´ And Boppin´
TTITLE14=Vaughn Monroe and The Norton Sisters - There, I´ve Said It Again
TTITLE15=Al Jolson - California Here I Come
TTITLE16=Peggy Lee - Hold Me
TTITLE17=Buddy Clark and Doris Day - Love Somebody
TTITLE18=Perry Como - Prisoner Of Love
TTITLE19=Edmundo Ros and His Orchestra - The Wedding Samba
TTITLE20=Bing Crosby and The Andrews Sisters - Ac-Cent-Tchu-Ate The Positive
TTITLE21=Sarah Vaughan - Nature Boy
TTITLE22=Glenn Miller - Tuxedo Junction
TTITLE23=Louis Armstrong - Blueberry Hill
TTITLE24=Perry Come and The Fontaine Sisters - A´ You´re Adorable
EXTD=
EXTT0=
EXTT1=
EXTT2=
EXTT3=
EXTT4=
EXTT5=
EXTT6=
EXTT7=
EXTT8=
EXTT9=
EXTT10=
EXTT11=
EXTT12=
EXTT13=
EXTT14=
EXTT15=
EXTT16=
EXTT17=
EXTT18=
EXTT19=
EXTT20=
EXTT21=
EXTT22=
EXTT23=
EXTT24=
PLAYORDER=
